<?xml version="1.0" encoding="utf-8"?>
<svg height="100" width="100" viewBox="0 0 400 421" xmlns="http://www.w3.org/2000/svg">
	<title>Logo</title>
    <path id="mitte" d="m258.32 228.18-.07-68.67-56.59-34.27-56.44 34.44.07 68.66 56.59 34.27z" fill="#8db243"/>
    <path id="block" d="m16.7 230.23 185.25 110.29 56.37-34.42-.29-57.97-56.42 34.6-136.2-82.74.63-88.09 130.62-79.37-47.47-28.83-130.97 79.58z" fill="#3983ab"/>
    <path d="m322.9 345.22-1.88-224-56.5-34.18-47.56 29.26 56.69 34.12.01 165.52-72.79 43.47-130.63-79.38.02 57.68 130.97 79.59z" fill="#c32e04"/>
    <path d="m263.15 10.11-183.37 113.71.13 68.59 47.85 28.72-.26-68.73 136.18-82.77 72.16 44.61v158.76l47.46-28.86v-159.17z" fill="#dfac20"/>
</svg>