<?xml version="1.0" encoding="UTF-8" standalone="no"?>
<!-- Created with Inkscape (http://www.inkscape.org/) -->

<svg
   xmlns:dc="http://purl.org/dc/elements/1.1/"
   xmlns:cc="http://creativecommons.org/ns#"
   xmlns:rdf="http://www.w3.org/1999/02/22-rdf-syntax-ns#"
   xmlns:svg="http://www.w3.org/2000/svg"
   xmlns="http://www.w3.org/2000/svg"
   xmlns:xlink="http://www.w3.org/1999/xlink"
   xmlns:sodipodi="http://sodipodi.sourceforge.net/DTD/sodipodi-0.dtd"
   xmlns:inkscape="http://www.inkscape.org/namespaces/inkscape"
   width="210mm"
   height="297mm"
   viewBox="0 0 210 297"
   version="1.1"
   id="svg8"
   inkscape:version="0.92.5 (2060ec1f9f, 2020-04-08)"
   sodipodi:docname="NgoLogoOriginal.svg">
  <defs
     id="defs2">
    <symbol
       id="Or_Gate">
      <title
         id="title3252">Or Gate</title>
      <path
         id="path3254"
         d="M 6.5236328,18.520833 H 11.90625 c 5.291667,0 7.9375,-5.291666 7.9375,-5.291666 0,0 -1.322917,-5.291667 -7.9375,-5.291667 H 6.5236328 c 0.4735846,0.8186706 0.8337984,1.7074809 1.0748698,2.645833 0.2173208,0.845905 0.3389974,1.731915 0.3389974,2.645834 0,0.913918 -0.1216766,1.799928 -0.3389974,2.645833 -0.2410714,0.938352 -0.6012852,1.827163 -1.0748698,2.645833 z"
         inkscape:connector-curvature="0"
         style="stroke-width:0.26458332" />
    </symbol>
    <symbol
       id="Buffer">
      <title
         id="title3269">Buffer</title>
      <path
         id="path3271"
         d="M 6.6145833,7.9375 19.84375,13.229167 6.6145833,18.520833 v -5.291666 z"
         inkscape:connector-curvature="0"
         style="stroke-width:0.26458332" />
    </symbol>
  </defs>
  <sodipodi:namedview
     id="base"
     pagecolor="#ffffff"
     bordercolor="#666666"
     borderopacity="1.0"
     inkscape:pageopacity="0.0"
     inkscape:pageshadow="2"
     inkscape:zoom="1.4"
     inkscape:cx="314.03266"
     inkscape:cy="544.02297"
     inkscape:document-units="mm"
     inkscape:current-layer="layer1"
     showgrid="false"
     inkscape:snap-text-baseline="true"
     inkscape:window-width="1280"
     inkscape:window-height="1000"
     inkscape:window-x="0"
     inkscape:window-y="0"
     inkscape:window-maximized="1" />
  <metadata
     id="metadata5">
    <rdf:RDF>
      <cc:Work
         rdf:about="">
        <dc:format>image/svg+xml</dc:format>
        <dc:type
           rdf:resource="http://purl.org/dc/dcmitype/StillImage" />
        <dc:title></dc:title>
      </cc:Work>
    </rdf:RDF>
  </metadata>
  <g
     inkscape:label="Ebene 1"
     inkscape:groupmode="layer"
     id="layer1">
    <g
       id="g3777"
       transform="translate(-29.527516,13.308451)">
      <g
         id="layer1-3"
         inkscape:label="Ebene 1">
        <circle
           style="fill:#ffc800;fill-opacity:1;stroke-width:0.26458332"
           r="53.052998"
           cy="138.37553"
           cx="114.25772"
           id="path10" />
        <ellipse
           ry="5.746295"
           rx="5.8799295"
           cy="138.9101"
           cx="114.9259"
           id="path13"
           style="fill:#1a1a1a;stroke-width:0.27095973" />
        <ellipse
           transform="rotate(-45)"
           ry="7.8844509"
           rx="18.575233"
           cy="183.74136"
           cx="10.349402"
           id="path820"
           style="fill:#b3b3b3;fill-opacity:1;stroke-width:0.26458332" />
        <ellipse
           ry="7.8844509"
           rx="18.575233"
           cy="126.48205"
           cx="206.06079"
           id="path820-6"
           style="fill:#1a1a1a;fill-opacity:1;stroke-width:0.26458332" />
        <ellipse
           transform="rotate(-90)"
           ry="7.8844509"
           rx="18.575233"
           cy="115.46044"
           cx="-164.70158"
           id="path820-7"
           style="fill:#1a1a1a;fill-opacity:1;stroke-width:0.26458332" />
        <ellipse
           transform="rotate(-90)"
           ry="7.8844509"
           rx="18.575233"
           cy="114.65862"
           cx="-112.04949"
           id="path820-5"
           style="fill:#b3b3b3;fill-opacity:1;stroke-width:0.26458332" />
        <ellipse
           transform="rotate(-45)"
           ry="7.8844509"
           rx="18.575233"
           cy="175.04791"
           cx="-43.512199"
           id="path820-35"
           style="fill:#e6e6e6;fill-opacity:1;stroke-width:0.26458332" />
        <ellipse
           transform="rotate(-135)"
           ry="7.8844509"
           rx="18.575233"
           cy="-12.329165"
           cx="-206.98688"
           id="path820-7-6"
           style="fill:#e6e6e6;fill-opacity:1;stroke-width:0.26458332" />
        <ellipse
           transform="rotate(-135)"
           ry="7.8844509"
           rx="18.575233"
           cy="-20.833628"
           cx="-151.23541"
           id="path820-7-2"
           style="fill:#b3b3b3;fill-opacity:1;stroke-width:0.26458332" />
        <rect
           y="172.71967"
           x="106.37327"
           height="5.3453932"
           width="17.907057"
           id="rect884"
           style="fill:#ffc800;fill-opacity:1;stroke-width:0.26458332" />
        <rect
           y="151.3381"
           x="106.5069"
           height="5.3453932"
           width="17.907057"
           id="rect884-9"
           style="fill:#ffc800;fill-opacity:1;stroke-width:0.26458332" />
        <rect
           y="162.02888"
           x="106.23964"
           height="5.3453932"
           width="17.907057"
           id="rect884-1"
           style="fill:#ffc800;fill-opacity:1;stroke-width:0.26458332" />
        <use
           transform="matrix(0,0.27527437,-0.56850317,0,123.00294,179.84994)"
           height="100%"
           width="100%"
           y="0"
           x="0"
           xlink:href="#Buffer"
           style="fill:#1a1a1a;fill-opacity:1;stroke:#000000;stroke-width:1.99999988;stroke-miterlimit:4;stroke-dasharray:0, 21.99999917;stroke-dashoffset:0"
           id="use5045" />
        <path
           sodipodi:nodetypes="cccccccsccccsscccsccccccccccsscccccccscccsccccccscccccsccccsscccccccscccscccccccccccccccccccccscccsccccccscccscscccccccccccccsccccccsccccscccssccccccsscccsccccccsccsccccccccsccccscccccsccssccccsscccsscsscsccccccccscccscccccccccscccscccccccccccccccccccscccscccccccccscccscccccccccccccccccccscccscccccccccscccscccccccccccccccccccscccscccccccccscccscccccccccccccccsccsccccscccsccscccccccscscccscccccccsccsscccscccccccccccccccccccccccccccccccccccccccccccscsccccccccccccscsccccccccccccscsccccccccccccscsccccccccccscccscccccccccccccsccssccccc"
           inkscape:connector-curvature="0"
           d="m 128.05307,192.35487 c -0.0601,0.007 -0.11988,0.0152 -0.17674,0.0351 -0.11328,0.0396 -0.34431,0.13787 -0.59841,0.24236 v 6.05079 c 0.18603,0.10336 0.3669,0.19638 0.5426,0.27906 0.1757,0.0792 0.33762,0.14642 0.48576,0.20154 0.15158,0.0551 0.28422,0.0965 0.39791,0.12402 0.11713,0.031 0.20843,0.0465 0.27388,0.0465 0.25494,0 0.49265,-0.0396 0.71314,-0.11886 0.22049,-0.0758 0.42202,-0.17914 0.60461,-0.31006 0.18604,-0.13436 0.34968,-0.29111 0.49093,-0.47025 0.14469,-0.17915 0.26699,-0.36863 0.3669,-0.56844 0.0999,-0.19982 0.1757,-0.4048 0.22738,-0.61495 0.0517,-0.21015 0.0775,-0.41513 0.0775,-0.61495 0,-0.37552 -0.0396,-0.71313 -0.11885,-1.01286 -0.0792,-0.29972 -0.19121,-0.55294 -0.3359,-0.75964 -0.14125,-0.21015 -0.31178,-0.37035 -0.51159,-0.48059 -0.19638,-0.11025 -0.41169,-0.16537 -0.64596,-0.16537 -0.0999,0 -0.21704,0.0241 -0.3514,0.0724 -0.13436,0.0482 -0.28078,0.1223 -0.43925,0.22221 -0.15503,0.0965 -0.31867,0.22048 -0.49093,0.37207 -0.16881,0.15158 -0.33934,0.33073 -0.51159,0.53743 z M 90.649666,192.513 c -0.251492,0 -0.477147,0.0258 -0.676963,0.0775 -0.199813,0.0517 -0.377238,0.12231 -0.532265,0.21188 -0.151585,0.0861 -0.282498,0.18776 -0.392742,0.30489 -0.106799,0.11369 -0.194649,0.23254 -0.263549,0.35657 -0.0689,0.12402 -0.118856,0.24804 -0.149863,0.37207 -0.03101,0.12402 -0.04651,0.23943 -0.04651,0.34623 0,0.25149 0.04651,0.46853 0.139525,0.65112 0.09302,0.17915 0.215321,0.33762 0.366903,0.47543 0.151585,0.1378 0.32384,0.25838 0.516766,0.36173 0.192923,0.10335 0.389295,0.20154 0.589111,0.29456 0.20326,0.093 0.401354,0.18603 0.594278,0.27905 0.192926,0.093 0.36518,0.19809 0.516765,0.31522 0.151583,0.11714 0.273884,0.2515 0.366903,0.40308 0.09302,0.15158 0.139526,0.33245 0.139526,0.5426 0,0.16537 -0.03962,0.32212 -0.118857,0.47026 -0.07924,0.14469 -0.182589,0.27216 -0.310057,0.3824 -0.127468,0.11025 -0.270441,0.1981 -0.428916,0.26355 -0.155027,0.062 -0.310057,0.093 -0.465087,0.093 -0.175699,0 -0.347954,-0.0224 -0.516763,-0.0672 -0.165365,-0.0482 -0.320395,-0.12058 -0.46509,-0.21704 -0.144693,-0.0999 -0.277328,-0.22393 -0.397907,-0.37207 -0.117134,-0.14814 -0.21532,-0.32384 -0.294555,-0.5271 l -0.211876,-0.0258 c -0.02756,0.093 -0.04651,0.21187 -0.05684,0.35657 -0.01035,0.14469 -0.01551,0.28766 -0.01551,0.42891 0,0.1378 0.0052,0.25838 0.01551,0.36174 0.01378,0.10335 0.03273,0.16191 0.05684,0.1757 0.120579,0.0792 0.249769,0.14986 0.387575,0.21187 0.141248,0.062 0.282498,0.11369 0.423746,0.15503 0.141248,0.0448 0.279054,0.0792 0.413412,0.10335 0.134358,0.0241 0.258381,0.0362 0.37207,0.0362 0.258381,0 0.494371,-0.031 0.707967,-0.093 0.21704,-0.062 0.409966,-0.1447 0.578776,-0.24805 0.172254,-0.10335 0.320394,-0.22393 0.444418,-0.36173 0.127468,-0.14125 0.232545,-0.28939 0.315227,-0.44442 0.08613,-0.15848 0.14986,-0.31867 0.191201,-0.48059 0.04134,-0.16192 0.06201,-0.3204 0.06201,-0.47543 0,-0.25493 -0.04651,-0.47886 -0.139528,-0.67179 -0.09302,-0.19637 -0.21704,-0.37035 -0.37207,-0.52193 -0.151583,-0.15158 -0.325562,-0.28595 -0.521931,-0.40308 -0.192926,-0.11713 -0.392742,-0.22565 -0.599447,-0.32556 -0.203261,-0.10335 -0.403077,-0.20154 -0.599446,-0.29455 -0.192926,-0.093 -0.366903,-0.19121 -0.521933,-0.29456 -0.151585,-0.1068 -0.273886,-0.22221 -0.366903,-0.34623 -0.09302,-0.12747 -0.139525,-0.27217 -0.139525,-0.43408 0,-0.0965 0.02066,-0.19637 0.06201,-0.29973 0.04479,-0.10679 0.111967,-0.20326 0.201539,-0.28939 0.08957,-0.0896 0.203261,-0.16192 0.341064,-0.21704 0.137805,-0.0551 0.30317,-0.0827 0.496093,-0.0827 0.09646,0 0.198094,0.0103 0.304893,0.031 0.106796,0.0172 0.213595,0.0499 0.320394,0.0982 0.110242,0.0448 0.217041,0.10508 0.320392,0.18087 0.106799,0.0758 0.208428,0.17053 0.304893,0.28422 l 0.186034,0.031 c 0.04134,-0.0379 0.08957,-0.0913 0.144695,-0.1602 0.05857,-0.0689 0.110241,-0.1378 0.155027,-0.20671 0.04823,-0.0723 0.08268,-0.1378 0.103355,-0.19637 0.02413,-0.062 0.02413,-0.10335 0,-0.12402 -0.06201,-0.0689 -0.148141,-0.13264 -0.258382,-0.1912 -0.110244,-0.0586 -0.234267,-0.10852 -0.37207,-0.14987 -0.134361,-0.0413 -0.280776,-0.0741 -0.439251,-0.0982 -0.15503,-0.0241 -0.310057,-0.0362 -0.465087,-0.0362 z m 20.663854,0.0801 -0.58239,0.50901 v 1.27124 h -0.37207 l -0.40308,0.34106 0.10852,0.1447 h 0.66663 v 3.1781 c 0,0.24116 0.0241,0.44442 0.0723,0.60978 0.0482,0.16537 0.11369,0.29973 0.19637,0.40308 0.0827,0.0999 0.17743,0.17225 0.28422,0.21704 0.11025,0.0448 0.22566,0.0672 0.34624,0.0672 0.0896,0 0.19809,-0.0172 0.32556,-0.0517 0.12747,-0.031 0.26527,-0.0775 0.41341,-0.13953 0.15158,-0.0654 0.31006,-0.14469 0.47542,-0.23771 0.16537,-0.0965 0.33246,-0.2067 0.50126,-0.33072 l -0.14986,-0.26356 c -0.26871,0.13781 -0.49437,0.2291 -0.67696,0.27389 -0.18259,0.0448 -0.33417,0.0672 -0.45475,0.0672 -0.10336,0 -0.1912,-0.0155 -0.26355,-0.0465 -0.0689,-0.0344 -0.12575,-0.0913 -0.17053,-0.17053 -0.0448,-0.0827 -0.0775,-0.1912 -0.0982,-0.32556 -0.0172,-0.13781 -0.0259,-0.31006 -0.0259,-0.51677 v -2.73368 h 0.26872 c 0.27905,0 0.50298,0.0207 0.67179,0.062 0.16881,0.0379 0.29456,0.0775 0.37724,0.11886 0.0344,-0.0138 0.0741,-0.0396 0.11886,-0.0775 0.0482,-0.0379 0.0965,-0.081 0.14469,-0.12919 0.0482,-0.0517 0.0947,-0.10335 0.13953,-0.15503 0.0482,-0.0551 0.0879,-0.1068 0.11885,-0.15503 l -0.14986,-0.14986 h -1.68982 v -1.67948 l -0.0605,-0.0491 c -0.0443,-0.0165 -0.0888,-0.0325 -0.13229,-0.0517 z m 3.18999,0.73639 v 5.31233 c 0,0.0586 -0.0637,0.11197 -0.19121,0.1602 -0.12747,0.0448 -0.30489,0.0965 -0.53226,0.15503 v 0.22221 h 2.22208 v -0.22221 c -0.22393,-0.0482 -0.40135,-0.0999 -0.53227,-0.15503 -0.12746,-0.0551 -0.1912,-0.10852 -0.1912,-0.1602 v -2.2996 c 0.14814,-0.24115 0.29973,-0.4513 0.45476,-0.63045 0.15502,-0.18259 0.30833,-0.33417 0.45992,-0.45475 0.15158,-0.12058 0.29627,-0.21188 0.43408,-0.27389 0.14125,-0.062 0.27216,-0.093 0.39274,-0.093 0.11369,0 0.21187,0.0138 0.29455,0.0413 0.0827,0.0276 0.15159,0.0792 0.20671,0.15502 0.0551,0.0758 0.0947,0.17915 0.11886,0.31006 0.0276,0.13092 0.0413,0.30145 0.0413,0.5116 v 2.73368 c 0,0.0482 -0.0586,0.0965 -0.1757,0.1447 -0.11714,0.0482 -0.29973,0.10507 -0.54777,0.17053 v 0.22221 h 2.22208 v -0.22221 c -0.27216,-0.0689 -0.46164,-0.12575 -0.56844,-0.17053 -0.10335,-0.0482 -0.15503,-0.0965 -0.15503,-0.1447 v -3.29178 c 0,-0.19293 -0.0327,-0.36002 -0.0982,-0.50126 -0.062,-0.1447 -0.14642,-0.26356 -0.25322,-0.35657 -0.10335,-0.093 -0.22393,-0.16192 -0.36173,-0.20671 -0.1378,-0.0448 -0.28078,-0.0672 -0.42892,-0.0672 -0.13435,0 -0.28938,0.0327 -0.46508,0.0982 -0.17226,0.0654 -0.34968,0.16019 -0.53227,0.28422 -0.18259,0.12402 -0.36518,0.27388 -0.54777,0.44958 -0.17915,0.1757 -0.34279,0.37379 -0.49093,0.59428 v -2.23087 c -0.26039,-0.001 -0.51917,-0.0249 -0.77514,-0.0842 z m -18.722375,0.88883 c -0.21704,0 -0.442695,0.0362 -0.67696,0.10852 -0.230823,0.0724 -0.451308,0.16881 -0.661458,0.28939 -0.206706,0.12058 -0.39102,0.2601 -0.55294,0.41858 -0.16192,0.15847 -0.282498,0.32384 -0.361736,0.49609 l 0.07235,0.20154 c 0.04134,0.0104 0.110244,0.007 0.206706,-0.0103 0.09991,-0.0172 0.199816,-0.0414 0.299722,-0.0724 0.103355,-0.031 0.191204,-0.0655 0.263552,-0.10336 0.07579,-0.0413 0.111966,-0.0775 0.108519,-0.10851 -0.01035,-0.10336 0.0069,-0.19638 0.05168,-0.27906 0.04479,-0.0861 0.106797,-0.1602 0.186034,-0.22221 0.07924,-0.062 0.172254,-0.11024 0.279053,-0.14469 0.106799,-0.0344 0.215318,-0.0534 0.325562,-0.0568 0.16881,-0.003 0.308335,0.0155 0.418579,0.0568 0.113689,0.0379 0.203261,0.0947 0.268716,0.17053 0.06546,0.0724 0.111967,0.1602 0.139528,0.26355 0.02756,0.0999 0.04134,0.20843 0.04134,0.32556 v 0.71831 l -1.059368,0.21187 c -0.289388,0.0586 -0.542602,0.14469 -0.759642,0.25838 -0.21704,0.11024 -0.399632,0.24116 -0.54777,0.39274 -0.144695,0.15158 -0.254939,0.3204 -0.330729,0.50643 -0.07235,0.18259 -0.108521,0.37552 -0.108521,0.57878 0,0.19981 0.03445,0.37034 0.103351,0.51159 0.0689,0.14125 0.15503,0.25666 0.258384,0.34624 0.106797,0.0896 0.225653,0.15503 0.356566,0.19637 0.130913,0.0413 0.258384,0.062 0.382408,0.062 0.110241,0 0.23082,-0.0172 0.361733,-0.0517 0.13436,-0.0344 0.275608,-0.0879 0.423749,-0.1602 0.148137,-0.0723 0.299722,-0.16536 0.454752,-0.27905 0.155027,-0.11369 0.310057,-0.24805 0.465087,-0.40308 0.0069,0.27906 0.04823,0.49782 0.124024,0.6563 0.07579,0.15847 0.170532,0.23771 0.28422,0.23771 0.09646,0 0.239433,-0.0465 0.428914,-0.13953 0.192926,-0.0896 0.435806,-0.23599 0.728639,-0.43925 l -0.07752,-0.23254 c -0.137806,0.0586 -0.244602,0.0965 -0.320395,0.11369 -0.07579,0.0172 -0.137803,0.0258 -0.186034,0.0258 -0.06201,0 -0.111966,-0.031 -0.149862,-0.093 -0.0379,-0.062 -0.05684,-0.16537 -0.05684,-0.31006 v -2.91455 c 0,-0.35485 -0.103354,-0.63046 -0.310059,-0.82682 -0.203261,-0.19982 -0.494372,-0.29973 -0.873332,-0.29973 z m 9.560135,0 c -0.093,0 -0.1912,0.0121 -0.29455,0.0362 -0.0999,0.0207 -0.20154,0.05 -0.30489,0.0879 -0.10336,0.0379 -0.20326,0.0827 -0.29973,0.13436 -0.093,0.0482 -0.17742,0.0982 -0.25321,0.14986 -0.17914,0.12403 -0.33934,0.27045 -0.48059,0.43926 -0.14125,0.16881 -0.26183,0.35312 -0.36174,0.55293 -0.0965,0.19982 -0.17053,0.41169 -0.2222,0.63562 -0.0517,0.22393 -0.0775,0.45131 -0.0775,0.68213 0,0.36518 0.0534,0.69591 0.1602,0.99219 0.11024,0.29283 0.25666,0.54432 0.43925,0.75447 0.18259,0.20671 0.39274,0.36691 0.63045,0.4806 0.24116,0.11369 0.49437,0.17053 0.75964,0.17053 0.1757,0 0.33762,-0.0138 0.48576,-0.0413 0.15159,-0.0241 0.30317,-0.0775 0.45476,-0.1602 0.15502,-0.0827 0.31867,-0.19982 0.49092,-0.3514 0.1757,-0.15503 0.37896,-0.35829 0.60978,-0.60978 -0.0172,-0.0276 -0.0431,-0.0637 -0.0775,-0.10852 -0.031,-0.0448 -0.0689,-0.0792 -0.11369,-0.10335 -0.19292,0.15847 -0.36173,0.28422 -0.50643,0.37723 -0.14125,0.093 -0.27044,0.16365 -0.38757,0.21188 -0.11714,0.0448 -0.22738,0.0741 -0.33073,0.0879 -0.0999,0.0103 -0.20326,0.0155 -0.31006,0.0155 -0.23771,0 -0.45131,-0.0551 -0.64079,-0.16536 -0.18948,-0.11025 -0.34968,-0.25667 -0.48059,-0.43925 -0.13091,-0.18604 -0.23254,-0.39791 -0.30489,-0.63562 -0.0689,-0.24116 -0.10335,-0.49093 -0.10335,-0.74931 v -0.0155 h 2.71818 c 0.11024,-0.0448 0.21704,-0.0965 0.32039,-0.15503 0.10335,-0.0586 0.18604,-0.1223 0.24805,-0.1912 0,-0.1447 -0.0121,-0.29628 -0.0362,-0.45475 -0.0241,-0.16192 -0.0655,-0.3204 -0.12403,-0.47543 -0.0551,-0.15503 -0.12747,-0.30144 -0.21704,-0.43925 -0.0896,-0.14125 -0.19981,-0.26355 -0.33073,-0.3669 -0.13091,-0.1068 -0.28422,-0.1912 -0.45992,-0.25321 -0.17225,-0.062 -0.37207,-0.093 -0.59945,-0.093 z m 16.70183,0 c -0.093,0 -0.1912,0.0121 -0.29456,0.0362 -0.0999,0.0207 -0.20154,0.05 -0.30489,0.0879 -0.10335,0.0379 -0.20326,0.0827 -0.29972,0.13436 -0.093,0.0482 -0.17743,0.0982 -0.25322,0.14986 -0.17914,0.12403 -0.33934,0.27045 -0.48059,0.43926 -0.14125,0.16881 -0.26183,0.35312 -0.36173,0.55293 -0.0965,0.19982 -0.17053,0.41169 -0.22221,0.63562 -0.0517,0.22393 -0.0775,0.45131 -0.0775,0.68213 0,0.36518 0.0534,0.69591 0.1602,0.99219 0.11024,0.29283 0.25666,0.54432 0.43925,0.75447 0.18259,0.20671 0.39274,0.36691 0.63045,0.4806 0.24116,0.11369 0.49437,0.17053 0.75965,0.17053 0.1757,0 0.33762,-0.0138 0.48576,-0.0413 0.15158,-0.0241 0.30316,-0.0775 0.45475,-0.1602 0.15503,-0.0827 0.31867,-0.19982 0.49092,-0.3514 0.1757,-0.15503 0.37897,-0.35829 0.60979,-0.60978 -0.0172,-0.0276 -0.0431,-0.0637 -0.0775,-0.10852 -0.031,-0.0448 -0.0689,-0.0792 -0.11369,-0.10335 -0.19292,0.15847 -0.36173,0.28422 -0.50643,0.37723 -0.14124,0.093 -0.27044,0.16365 -0.38757,0.21188 -0.11713,0.0448 -0.22738,0.0741 -0.33073,0.0879 -0.0999,0.0103 -0.20326,0.0155 -0.31006,0.0155 -0.23771,0 -0.4513,-0.0551 -0.64078,-0.16536 -0.18949,-0.11025 -0.34968,-0.25667 -0.4806,-0.43925 -0.13091,-0.18604 -0.23254,-0.39791 -0.30489,-0.63562 -0.0689,-0.24116 -0.10335,-0.49093 -0.10335,-0.74931 v -0.0155 h 2.71818 c 0.11024,-0.0448 0.21704,-0.0965 0.32039,-0.15503 0.10336,-0.0586 0.18604,-0.1223 0.24805,-0.1912 0,-0.1447 -0.0121,-0.29628 -0.0362,-0.45475 -0.0241,-0.16192 -0.0655,-0.3204 -0.12403,-0.47543 -0.0551,-0.15503 -0.45819,-0.66835 -0.54777,-0.80615 -0.0896,-0.14125 0.13092,0.10335 0,0 -0.13091,-0.1068 -0.28422,-0.1912 -0.45991,-0.25321 -0.17226,-0.062 -0.37208,-0.093 -0.59945,-0.093 z m 12.59354,0 c -0.093,0 -0.1912,0.0121 -0.29455,0.0362 -0.0999,0.0207 -0.20154,0.05 -0.30489,0.0879 -0.10335,0.0379 -0.20326,0.0827 -0.29973,0.13436 -0.093,0.0482 -0.17742,0.0982 -0.25321,0.14986 -0.17914,0.12403 -0.33934,0.27045 -0.48059,0.43926 -0.14125,0.16881 -0.26183,0.35312 -0.36174,0.55293 -0.0965,0.19982 -0.17053,0.41169 -0.22221,0.63562 -0.0517,0.22393 -0.0775,0.45131 -0.0775,0.68213 0,0.36518 0.0534,0.69591 0.1602,0.99219 0.11024,0.29283 0.25666,0.54432 0.43925,0.75447 0.18259,0.20671 0.39274,0.36691 0.63045,0.4806 0.24116,0.11369 0.49437,0.17053 0.75964,0.17053 0.1757,0 0.33762,-0.0138 0.48576,-0.0413 0.15159,-0.0241 0.30317,-0.0775 0.45475,-0.1602 0.15503,-0.0827 0.31868,-0.19982 0.49093,-0.3514 0.1757,-0.15503 0.37896,-0.35829 0.60978,-0.60978 -0.0172,-0.0276 -0.0431,-0.0637 -0.0775,-0.10852 -0.031,-0.0448 -0.0689,-0.0792 -0.11369,-0.10335 -0.19292,0.15847 -0.36174,0.28422 -0.50643,0.37723 -0.14125,0.093 -0.27044,0.16365 -0.38757,0.21188 -0.11714,0.0448 -0.22738,0.0741 -0.33073,0.0879 -0.0999,0.0103 -0.20326,0.0155 -0.31006,0.0155 -0.23771,0 -0.45131,-0.0551 -0.64079,-0.16536 -0.18948,-0.11025 -0.34968,-0.25667 -0.48059,-0.43925 -0.13091,-0.18604 -0.23254,-0.39791 -0.30489,-0.63562 -0.0689,-0.24116 -0.10335,-0.49093 -0.10335,-0.74931 v -0.0155 h 2.71818 c 0.11024,-0.0448 0.21704,-0.0965 0.32039,-0.15503 0.10335,-0.0586 0.18604,-0.1223 0.24805,-0.1912 0,-0.1447 -0.0121,-0.29628 -0.0362,-0.45475 -0.0241,-0.16192 -0.0655,-0.3204 -0.12403,-0.47543 -0.0551,-0.15503 -0.12747,-0.30144 -0.21704,-0.43925 -0.0896,-0.14125 -0.19981,-0.26355 -0.33073,-0.3669 -0.13091,-0.1068 -0.28422,-0.1912 -0.45992,-0.25321 -0.17225,-0.062 -0.37207,-0.093 -0.59945,-0.093 z m 4.88859,0 c -0.093,0 -0.1912,0.0121 -0.29455,0.0362 -0.0999,0.0207 -0.20154,0.05 -0.30489,0.0879 -0.10336,0.0379 -0.20326,0.0827 -0.29973,0.13436 -0.093,0.0482 -0.17742,0.0982 -0.25321,0.14986 -0.17914,0.12403 -0.33934,0.27045 -0.48059,0.43926 -0.14125,0.16881 -0.26183,0.35312 -0.36174,0.55293 -0.0965,0.19982 -0.17053,0.41169 -0.22221,0.63562 -0.0517,0.22393 -0.0775,0.45131 -0.0775,0.68213 0,0.36518 0.0534,0.69591 0.1602,0.99219 0.11024,0.29283 0.25666,0.54432 0.43925,0.75447 0.18259,0.20671 0.39274,0.36691 0.63045,0.4806 0.24116,0.11369 0.49437,0.17053 0.75964,0.17053 0.1757,0 0.33762,-0.0138 0.48576,-0.0413 0.15159,-0.0241 0.30317,-0.0775 0.45475,-0.1602 0.15503,-0.0827 0.31868,-0.19982 0.49093,-0.3514 0.1757,-0.15503 0.37896,-0.35829 0.60978,-0.60978 -0.0172,-0.0276 -0.0431,-0.0637 -0.0775,-0.10852 -0.031,-0.0448 -0.0689,-0.0792 -0.11369,-0.10335 -0.19293,0.15847 -0.36173,0.28422 -0.50643,0.37723 -0.14125,0.093 -0.27044,0.16365 -0.38757,0.21188 -0.11714,0.0448 -0.22738,0.0741 -0.33073,0.0879 -0.0999,0.0103 -0.20326,0.0155 -0.31006,0.0155 -0.23771,0 -0.45131,-0.0551 -0.64079,-0.16536 -0.18948,-0.11025 -0.34968,-0.25667 -0.48059,-0.43925 -0.13091,-0.18604 -0.23254,-0.39791 -0.30489,-0.63562 -0.0689,-0.24116 -0.10335,-0.49093 -0.10335,-0.74931 v -0.0155 h 2.71818 c 0.11024,-0.0448 0.21704,-0.0965 0.32039,-0.15503 0.10335,-0.0586 0.18604,-0.1223 0.24805,-0.1912 0,-0.1447 -0.0121,-0.29628 -0.0362,-0.45475 -0.0241,-0.16192 -0.0655,-0.3204 -0.12403,-0.47543 -0.0551,-0.15503 -0.12747,-0.30144 -0.21704,-0.43925 -0.0896,-0.14125 -0.19981,-0.26355 -0.33073,-0.3669 -0.13091,-0.1068 -0.28422,-0.1912 -0.45992,-0.25321 -0.17225,-0.062 -0.37207,-0.093 -0.59945,-0.093 z m 4.25297,0 c -0.19637,0 -0.38757,0.031 -0.5736,0.093 -0.18259,0.0586 -0.34623,0.14469 -0.49093,0.25838 -0.14125,0.11369 -0.25494,0.25494 -0.34106,0.42375 -0.0861,0.16536 -0.12919,0.35484 -0.12919,0.56844 0,0.16536 0.031,0.31178 0.093,0.43925 0.0655,0.12747 0.14986,0.24288 0.25322,0.34623 0.1068,0.10335 0.22737,0.19637 0.36173,0.27905 0.13436,0.0827 0.27389,0.1602 0.41858,0.23255 0.15848,0.0827 0.31351,0.16364 0.46509,0.24288 0.15503,0.0758 0.29283,0.15847 0.41341,0.24804 0.12058,0.0861 0.21704,0.18259 0.28939,0.28939 0.0758,0.1068 0.11369,0.2291 0.11369,0.3669 0,0.12058 -0.0207,0.23255 -0.062,0.3359 -0.0413,0.0999 -0.0999,0.18604 -0.17571,0.25838 -0.0758,0.0724 -0.16536,0.12919 -0.26871,0.17053 -0.10336,0.0379 -0.21704,0.0568 -0.34107,0.0568 -0.17914,0 -0.34623,-0.0276 -0.50126,-0.0827 -0.15158,-0.0551 -0.28594,-0.13092 -0.40307,-0.22738 -0.11369,-0.0965 -0.20499,-0.20843 -0.27389,-0.3359 -0.0689,-0.12746 -0.1068,-0.26355 -0.11369,-0.40824 l -0.22221,-0.0568 c -0.0241,0.0792 -0.0448,0.18603 -0.062,0.32039 -0.0138,0.13436 -0.0241,0.26872 -0.031,0.40307 -0.003,0.13092 -0.002,0.24805 0.005,0.35141 0.0103,0.0999 0.0276,0.15503 0.0517,0.16536 0.23082,0.12747 0.46164,0.22221 0.69247,0.28422 0.23426,0.062 0.43408,0.093 0.59944,0.093 0.0655,0 0.15503,-0.007 0.26872,-0.0207 0.11713,-0.0103 0.24116,-0.0344 0.37207,-0.0723 0.13091,-0.0379 0.26355,-0.093 0.39791,-0.16537 0.13436,-0.0724 0.25666,-0.16881 0.3669,-0.28939 0.11024,-0.12057 0.19982,-0.26699 0.26872,-0.43925 0.0689,-0.1757 0.10335,-0.38585 0.10335,-0.63045 0,-0.19292 -0.0379,-0.36001 -0.11368,-0.50126 -0.0758,-0.14469 -0.17398,-0.27216 -0.29456,-0.3824 -0.12058,-0.11369 -0.25666,-0.2136 -0.40824,-0.29973 -0.15159,-0.0861 -0.30145,-0.16709 -0.44959,-0.24288 -0.14469,-0.0758 -0.28594,-0.14814 -0.42375,-0.21704 -0.13436,-0.0724 -0.25493,-0.14641 -0.36173,-0.22221 -0.1068,-0.0792 -0.19293,-0.16192 -0.25839,-0.24804 -0.0654,-0.0896 -0.0982,-0.18949 -0.0982,-0.29973 0,-0.0723 0.0155,-0.14469 0.0465,-0.21704 0.0344,-0.0723 0.0827,-0.1378 0.14469,-0.19637 0.0655,-0.062 0.14297,-0.11196 0.23255,-0.14986 0.0896,-0.0379 0.1912,-0.0568 0.30489,-0.0568 0.16881,0 0.34106,0.0499 0.51676,0.14986 0.17915,0.0965 0.3514,0.26871 0.51677,0.51676 l 0.20154,0.0413 c 0.0207,-0.0276 0.0499,-0.0792 0.0879,-0.15503 0.0379,-0.0758 0.0723,-0.15675 0.10335,-0.24288 0.0344,-0.0861 0.0586,-0.16536 0.0723,-0.23771 0.0172,-0.0723 0.0155,-0.11886 -0.005,-0.13952 -0.0689,-0.062 -0.15848,-0.11714 -0.26872,-0.16537 -0.11024,-0.0482 -0.2291,-0.0896 -0.35657,-0.12402 -0.12402,-0.0345 -0.25149,-0.0603 -0.38241,-0.0775 -0.12747,-0.0207 -0.2446,-0.031 -0.3514,-0.031 z m -46.002355,0.15503 v 0.22221 c 0.172254,0.0379 0.30317,0.0827 0.392742,0.13436 0.08957,0.0482 0.14986,0.12058 0.180867,0.21704 l 1.705326,4.38733 c 0.0448,-0.0104 0.0999,-0.0259 0.16536,-0.0465 0.0689,-0.0207 0.13781,-0.0499 0.20671,-0.0879 0.0689,-0.0344 0.13263,-0.0775 0.1912,-0.12919 0.0586,-0.0551 0.10335,-0.12058 0.13436,-0.19637 l 1.46244,-3.92741 c 0.0172,-0.0517 0.0362,-0.093 0.0568,-0.12402 0.0241,-0.0345 0.0568,-0.0637 0.0982,-0.0878 0.0413,-0.0276 0.0947,-0.0517 0.1602,-0.0724 0.0654,-0.0207 0.14986,-0.0431 0.25321,-0.0672 v -0.22221 h -1.66915 v 0.22221 c 0.12747,0.0207 0.2291,0.0413 0.30489,0.062 0.0792,0.0172 0.13953,0.0396 0.18087,0.0672 0.0413,0.0241 0.0637,0.0551 0.0672,0.093 0.007,0.0344 0.002,0.0775 -0.0155,0.12919 l -1.19373,3.31246 -1.271242,-3.31246 c -0.02066,-0.0551 -0.02756,-0.10163 -0.02066,-0.13953 0.0069,-0.0379 0.03273,-0.0689 0.07752,-0.093 0.04823,-0.0275 0.113687,-0.0499 0.196369,-0.0672 0.08613,-0.0172 0.196371,-0.0345 0.330729,-0.0517 v -0.22221 z m 7.420735,0.38241 c 0.14814,0 0.27733,0.0224 0.38757,0.0672 0.11369,0.0448 0.21015,0.10335 0.28939,0.1757 0.0792,0.0689 0.14297,0.14814 0.19121,0.23771 0.0517,0.0896 0.0913,0.18086 0.11885,0.27388 0.031,0.0896 0.0517,0.17743 0.062,0.26355 0.0104,0.0861 0.0155,0.1602 0.0155,0.22221 0,0.0724 -0.0138,0.1223 -0.0413,0.14986 -0.0241,0.0241 -0.0758,0.0362 -0.15503,0.0362 h -2.20659 c 0.0345,-0.2136 0.0896,-0.40825 0.16537,-0.58395 0.0792,-0.1757 0.1757,-0.32556 0.28939,-0.44958 0.11713,-0.12403 0.24977,-0.22049 0.39791,-0.28939 0.14814,-0.0689 0.31005,-0.10335 0.48575,-0.10335 z m 16.70182,0 c 0.14814,0 0.27733,0.0224 0.38758,0.0672 0.11369,0.0448 0.21015,0.10335 0.28938,0.1757 0.0792,0.0689 0.14298,0.14814 0.19121,0.23771 0.0517,0.0896 0.0913,0.18086 0.11885,0.27388 0.031,0.0896 0.0517,0.17743 0.062,0.26355 0.0104,0.0861 0.0155,0.1602 0.0155,0.22221 0,0.0724 -0.0138,0.1223 -0.0413,0.14986 -0.0241,0.0241 -0.0758,0.0362 -0.15503,0.0362 h -2.20658 c 0.0345,-0.2136 0.0896,-0.40825 0.16536,-0.58395 0.0792,-0.1757 0.1757,-0.32556 0.28939,-0.44958 0.11713,-0.12403 0.24977,-0.22049 0.39791,-0.28939 0.14814,-0.0689 0.31006,-0.10335 0.48576,-0.10335 z m 12.59355,0 c 0.14814,0 0.27733,0.0224 0.38757,0.0672 0.11369,0.0448 0.21015,0.10335 0.28939,0.1757 0.0792,0.0689 0.14297,0.14814 0.1912,0.23771 0.0517,0.0896 0.0913,0.18086 0.11886,0.27388 0.031,0.0896 0.0517,0.17743 0.062,0.26355 0.0104,0.0861 0.0155,0.1602 0.0155,0.22221 0,0.0724 -0.0138,0.1223 -0.0413,0.14986 -0.0241,0.0241 -0.0758,0.0362 -0.15503,0.0362 h -2.20659 c 0.0345,-0.2136 0.0896,-0.40825 0.16537,-0.58395 0.0792,-0.1757 0.1757,-0.32556 0.28939,-0.44958 0.11713,-0.12403 0.24977,-0.22049 0.39791,-0.28939 0.14813,-0.0689 0.31005,-0.10335 0.48575,-0.10335 z m 4.88859,0 c 0.14814,0 0.27733,0.0224 0.38757,0.0672 0.11369,0.0448 0.21015,0.10335 0.28939,0.1757 0.0792,0.0689 0.14297,0.14814 0.19121,0.23771 0.0517,0.0896 0.0913,0.18086 0.11885,0.27388 0.031,0.0896 0.0517,0.17743 0.062,0.26355 0.0103,0.0861 0.0155,0.1602 0.0155,0.22221 0,0.0724 -0.0138,0.1223 -0.0413,0.14986 -0.0241,0.0241 -0.0758,0.0362 -0.15503,0.0362 h -2.20659 c 0.0344,-0.2136 0.0896,-0.40825 0.16537,-0.58395 0.0792,-0.1757 0.1757,-0.32556 0.28939,-0.44958 0.11713,-0.12403 0.24976,-0.22049 0.39791,-0.28939 0.14813,-0.0689 0.31005,-0.10335 0.48575,-0.10335 z m -9.89604,0.16019 c 0.16537,0 0.32557,0.0482 0.4806,0.1447 0.15503,0.0965 0.29111,0.23599 0.40824,0.41858 0.12058,0.18259 0.21704,0.40824 0.28939,0.67696 0.0723,0.26527 0.10852,0.57016 0.10852,0.91467 0,0.19982 -0.0276,0.39446 -0.0827,0.58394 -0.0551,0.18948 -0.1378,0.36002 -0.24804,0.5116 -0.1068,0.14814 -0.24116,0.26872 -0.40308,0.36174 -0.15847,0.0896 -0.34279,0.13436 -0.55294,0.13436 -0.062,0 -0.14641,-0.009 -0.25321,-0.0258 -0.10335,-0.0172 -0.22049,-0.0448 -0.3514,-0.0827 -0.12747,-0.0413 -0.26355,-0.0965 -0.40824,-0.16536 -0.14125,-0.0689 -0.28078,-0.15503 -0.41858,-0.25838 v -2.10323 c 0.14469,-0.2136 0.28939,-0.39102 0.43408,-0.53227 0.14469,-0.14469 0.28077,-0.25838 0.40824,-0.34107 0.12747,-0.0861 0.24116,-0.14641 0.34107,-0.18086 0.10335,-0.0379 0.18603,-0.0568 0.24804,-0.0568 z m -33.295121,1.7415 v 1.34875 c -0.261829,0.22738 -0.509876,0.39447 -0.74414,0.50127 -0.230823,0.10335 -0.449586,0.15503 -0.656291,0.15503 -0.04479,0 -0.09991,-0.009 -0.165365,-0.0258 -0.06201,-0.0172 -0.124023,-0.05 -0.186036,-0.0982 -0.05857,-0.0517 -0.108519,-0.12058 -0.14986,-0.2067 -0.04134,-0.0861 -0.06201,-0.1981 -0.06201,-0.3359 0,-0.14125 0.02585,-0.27561 0.07752,-0.40308 0.05168,-0.13091 0.132635,-0.24977 0.242879,-0.35657 0.110244,-0.10679 0.249769,-0.19981 0.418579,-0.27905 0.172254,-0.0792 0.375515,-0.13952 0.609782,-0.18087 z"
           style="font-style:normal;font-weight:normal;font-size:10.58333302px;line-height:1.25;font-family:sans-serif;letter-spacing:0px;word-spacing:0px;fill:#1a1a1a;fill-opacity:1;stroke:none;stroke-width:0.26458332"
           id="text5091" />
        <flowRoot
           style="font-style:normal;font-weight:normal;font-size:40px;line-height:1.25;font-family:sans-serif;letter-spacing:0px;word-spacing:0px;fill:#000000;fill-opacity:1;stroke:none"
           id="flowRoot5136"
           xml:space="preserve"><flowRegion
             id="flowRegion5138"><rect
               y="379.04742"
               x="294.96454"
               height="314.15744"
               width="283.85287"
               id="rect5140" /></flowRegion><flowPara
             id="flowPara5142" /></flowRoot>        <flowRoot
           style="font-style:normal;font-weight:normal;font-size:40px;line-height:1.25;font-family:sans-serif;letter-spacing:0px;word-spacing:0px;fill:#000000;fill-opacity:1;stroke:none"
           id="flowRoot5144"
           xml:space="preserve"><flowRegion
             id="flowRegion5146"><rect
               y="443.69717"
               x="248.49753"
               height="46.467018"
               width="404.061"
               id="rect5148" /></flowRegion><flowPara
             id="flowPara5150" /></flowRoot>      </g>
      <g
         inkscape:label="Ebene 2"
         id="layer2" />
    </g>
    <rect
       id="rect3779"
       width="77.10714"
       height="26.269344"
       x="48.821686"
       y="205.47433"
       style="fill:#ffffff;stroke-width:0.34074146" />
    <rect
       style="fill:#ffffff;stroke-width:0.30043203"
       id="rect3781"
       width="48.002972"
       height="26.836306"
       x="152.13542"
       y="128.98958" />
    <text
       xml:space="preserve"
       style="font-style:normal;font-weight:normal;font-size:11.2465744px;line-height:1.25;font-family:sans-serif;letter-spacing:0px;word-spacing:0px;fill:#000000;fill-opacity:1;stroke:none;stroke-width:0.28116435"
       x="65.920975"
       y="214.88992"
       id="text3787"
       transform="scale(0.99437356,1.0056583)"><tspan
         sodipodi:role="line"
         id="tspan3785"
         x="65.920975"
         y="214.88992"
         style="font-style:normal;font-variant:normal;font-weight:normal;font-stretch:normal;font-size:11.2465744px;font-family:Andada;-inkscape-font-specification:'Andada, Normal';font-variant-ligatures:normal;font-variant-caps:normal;font-variant-numeric:normal;font-feature-settings:normal;text-align:start;writing-mode:lr-tb;text-anchor:start;stroke-width:0.28116435">BEEsafe</tspan></text>
    <flowRoot
       xml:space="preserve"
       id="flowRoot3789"
       style="fill:black;fill-opacity:1;stroke:none;font-family:sans-serif;font-style:normal;font-weight:normal;font-size:40px;line-height:1.25;letter-spacing:0px;word-spacing:0px"><flowRegion
         id="flowRegion3791"><rect
           id="rect3793"
           width="0.71428031"
           height="61.428566"
           x="72.14286"
           y="549.66254" /></flowRegion><flowPara
         id="flowPara3795"></flowPara></flowRoot>    <rect
       style="fill:#000000;stroke-width:0.2901113"
       id="rect3797"
       width="39.876488"
       height="0.37797531"
       x="65.550072"
       y="216.86179" />
    <rect
       style="fill:#000000;stroke-width:0.2901113"
       id="rect3797-6"
       width="39.876488"
       height="0.37797531"
       x="65.673363"
       y="217.36047" />
    <rect
       style="fill:#ffffff;stroke-width:0.26458332"
       id="rect3816"
       width="4.3467264"
       height="7.5595236"
       x="105.42656"
       y="216.86179" />
    <rect
       style="fill:#ffffff;stroke-width:0.26458332"
       id="rect3816-4"
       width="4.3467264"
       height="7.5595236"
       x="61.20335"
       y="216.10583" />
  </g>
</svg>
